<svg width="362" height="84" viewBox="0 0 181 42" xmlns="http://www.w3.org/2000/svg"><g fill="#171717"><path fill="#626a4d" d="M42 4.975V36.904L36.902 41.995 30.793 42 6.548 16.603v11.026l3.549 3.796V42H4.978L0 37.025V5.09L5.098 0h6.109l24.245 25.392V13.843l-3.549-3.618V0h5.119L42 4.975Z"/><path d="M74.125 1v24h-2.808L58.26 6.156h-.234V25h-2.901V1h2.808l13.103 18.891h.234V1h2.855Zm12 24c-4.76 0-8-3.63-8-8.977C78.125 10.59 81.365 7 86.125 7s8 3.59 8 9.023c0 5.347-3.24 8.977-8 8.977Zm0-2.403c3.6 0 5.287-3.1 5.287-6.574 0-3.474-1.687-6.62-5.287-6.62s-5.287 3.146-5.287 6.62c0 3.474 1.687 6.574 5.287 6.574ZM97.125 7h2.977l4.93 14.344h.186L110.148 7h2.977l-6.605 18h-2.79l-6.605-18Zm24 18c-3.5 0-6-1.98-6-5.337 0-3.58 2.84-4.52 6.795-5.11 3.2-.43 4.514-.42 4.514-1.583 0-2.35-1.35-3.618-3.693-3.618-2.53 0-3.84 1.22-4.56 2.623l-2.554-.905c1.37-3.13 4.25-4.07 7.022-4.07 2.46 0 6.476.75 6.476 6.15v11.443h-2.691v-2.352h-.136c-.91 1.88-2.73 2.759-5.173 2.759Zm.384-2.397c3.19 0 4.925-2.07 4.925-4.296v-2.443c-.76.56-3.14.75-4.651.996-2.25.29-3.967 1-3.967 2.939 0 1.84 1.45 2.804 3.693 2.804ZM142.785 7.208v2.287h-4v10.245c0 1.94.91 2.653 2.475 2.653.62 0 1.03-.08 1.282-.137l.583 2.424c-.51.18-1.23.32-2.136.32-2.87 0-5.048-1.76-5.048-4.528V9.495h-2.816V7.208h2.816V3h2.864v4.208h3.98ZM153.598 25c-5.2 0-8.473-3.52-8.473-8.932 0-5.38 3.18-9.068 8.189-9.068 4.14 0 7.811 2.51 7.811 8.705v1.134h-13.207c.09 3.65 2.2 5.758 5.68 5.758 2.37 0 3.9-.99 4.545-2.72l2.698.725c-.96 2.84-3.62 4.398-7.243 4.398Zm-5.68-10.474h10.367c0-2.95-1.97-5.123-4.971-5.123-3.17 0-5.19 2.4-5.396 5.123ZM165.125 25V1h2.774v14.016h.329L176.128 7h3.433l-7.85 7.94L180.125 25h-3.527l-6.5-8.207-2.199 2.03V25h-2.774Z"/><path d="M55.125 40.8v-9h7v1.157h-5.704v2.765h5.444v1.157h-5.444v2.764h5.704V40.8h-7Zm11.711 0v-9h1.406l6.188 7.123V31.8h1.406v9H74.43l-6.188-7.123V40.8h-1.406Zm18.715.5a5 5 0 1 1 3.959-8.054l-.905.743a3.96 3.96 0 1 0 .676 2.919h-3.73v-1.216h4.959c.027.203.041.405.041.608a5 5 0 0 1-5 5Zm9.711-.5v-9h1v9h-1Zm5.711 0v-9h1.406l6.188 7.123V31.8h1.406v9h-1.406l-6.188-7.123V40.8h-1.406Zm13.711 0v-9h7v1.157h-5.704v2.765h5.444v1.157h-5.444v2.764h5.704V40.8h-7Zm11.714 0v-9h7v1.157h-5.703v2.765h5.444v1.157h-5.444v2.764h5.703V40.8h-7Zm18.124 0-3.048-3.343h-2.095V40.8h-1.27v-9h4.953c3.65 0 3.65 5.657 0 5.657l3.047 3.343h-1.587Zm-5.143-4.5h3.556c2.2 0 2.2-3.343 0-3.343h-3.556V36.3Zm11.441 4.5v-9h1v9h-1Zm5.711 0v-9h1.406l6.188 7.123V31.8h1.406v9h-1.406l-6.188-7.123V40.8h-1.406Zm18.715.5a5 5 0 1 1 3.96-8.054l-.906.743a3.96 3.96 0 1 0 .676 2.919h-3.73v-1.216h4.96c.026.203.04.405.04.608a5 5 0 0 1-5 5Z"/></g></svg>
