<svg width="181" height="42" viewBox="0 0 181 42" fill="none" xmlns="http://www.w3.org/2000/svg">
<path d="M42 4.97534V36.9043L36.9018 41.9948L30.7934 42L6.54811 16.6033V27.6285L10.097 31.4253V42H4.97782L0 37.0247V5.09043L5.09821 0H11.2066L35.4519 25.3915V13.843L31.903 10.225V0H37.0222L42 4.97534Z" fill="white"/>
<path d="M167.711 18.4375L167.664 15.0156H168.228L176.128 7H179.561L171.144 15.4844H170.909L167.711 18.4375ZM165.125 25V1H167.899V25H165.125ZM176.598 25L169.545 16.0937L171.52 14.1719L180.125 25H176.598Z" fill="white"/>
<path d="M153.598 25C151.847 25 150.336 24.6297 149.066 23.8892C147.804 23.1411 146.829 22.0982 146.143 20.7607C145.464 19.4156 145.125 17.8514 145.125 16.068C145.125 14.2846 145.464 12.7128 146.143 11.3526C146.829 9.98489 147.784 8.9194 149.007 8.15617C150.237 7.38539 151.673 7 153.314 7C154.261 7 155.196 7.15113 156.119 7.4534C157.042 7.75567 157.882 8.24685 158.64 8.92695C159.397 9.5995 160.001 10.4912 160.45 11.602C160.9 12.7128 161.125 14.0806 161.125 15.7053V16.8388H147.113V14.5264H158.285C158.285 13.5441 158.08 12.6675 157.669 11.8967C157.267 11.1259 156.691 10.5176 155.942 10.0718C155.2 9.62594 154.324 9.40302 153.314 9.40302C152.202 9.40302 151.239 9.66751 150.427 10.1965C149.622 10.7179 149.003 11.398 148.569 12.2368C148.135 13.0756 147.918 13.9748 147.918 14.9345V16.4761C147.918 17.7909 148.155 18.9055 148.628 19.8199C149.109 20.7267 149.776 21.4181 150.628 21.8942C151.48 22.3627 152.47 22.597 153.598 22.597C154.332 22.597 154.995 22.4987 155.587 22.3023C156.186 22.0982 156.703 21.796 157.137 21.3955C157.571 20.9874 157.906 20.4811 158.143 19.8766L160.841 20.602C160.557 21.4786 160.08 22.2494 159.409 22.9144C158.738 23.5718 157.91 24.0856 156.924 24.4559C155.938 24.8186 154.829 25 153.598 25Z" fill="white"/>
<path d="M142.785 7.2079V9.4948H133.125V7.2079H142.785ZM135.941 3H138.805V19.7401C138.805 20.5024 138.922 21.0742 139.157 21.4553C139.399 21.8288 139.707 22.0804 140.079 22.21C140.459 22.3319 140.86 22.3929 141.28 22.3929C141.596 22.3929 141.855 22.3777 142.057 22.3472C142.259 22.3091 142.421 22.2786 142.542 22.2557L143.125 24.6798C142.931 24.7484 142.66 24.817 142.312 24.8857C141.964 24.9619 141.523 25 140.989 25C140.18 25 139.387 24.8361 138.61 24.5083C137.842 24.1805 137.203 23.6812 136.693 23.0104C136.191 22.3396 135.941 21.4934 135.941 20.4719V3Z" fill="white"/>
<path d="M121.099 25C119.989 25 118.982 24.7927 118.078 24.3781C117.173 23.956 116.455 23.3492 115.923 22.5578C115.391 21.7588 115.125 20.794 115.125 19.6633C115.125 18.6683 115.323 17.8618 115.718 17.2437C116.113 16.6181 116.641 16.1281 117.303 15.7739C117.964 15.4196 118.693 15.1558 119.491 14.9824C120.297 14.8015 121.107 14.6583 121.92 14.5528C122.984 14.4171 123.846 14.3153 124.508 14.2475C125.177 14.1721 125.663 14.0477 125.967 13.8744C126.279 13.701 126.434 13.3995 126.434 12.9698V12.8794C126.434 11.7638 126.127 10.897 125.511 10.2789C124.903 9.6608 123.98 9.35176 122.741 9.35176C121.456 9.35176 120.449 9.63065 119.719 10.1884C118.99 10.7462 118.477 11.3417 118.18 11.9749L115.627 11.0704C116.083 10.0151 116.691 9.19347 117.451 8.60553C118.218 8.01005 119.054 7.59548 119.959 7.36181C120.871 7.1206 121.768 7 122.649 7C123.212 7 123.858 7.06784 124.588 7.20352C125.325 7.33166 126.035 7.59925 126.719 8.00628C127.411 8.41332 127.985 9.02764 128.441 9.84925C128.897 10.6709 129.125 11.7714 129.125 13.1508V24.593H126.434V22.2412H126.298C126.115 22.6181 125.811 23.0214 125.386 23.451C124.96 23.8807 124.394 24.2462 123.687 24.5477C122.98 24.8492 122.117 25 121.099 25ZM121.509 22.603C122.573 22.603 123.47 22.3957 124.2 21.9812C124.937 21.5666 125.492 21.0314 125.864 20.3756C126.244 19.7198 126.434 19.0302 126.434 18.3065V15.8643C126.32 16 126.07 16.1244 125.682 16.2374C125.302 16.343 124.861 16.4372 124.36 16.5201C123.866 16.5955 123.383 16.6633 122.912 16.7236C122.448 16.7764 122.072 16.8216 121.783 16.8593C121.084 16.9497 120.43 17.0967 119.822 17.3003C119.222 17.4962 118.735 17.794 118.363 18.1935C117.998 18.5854 117.816 19.1206 117.816 19.799C117.816 20.7261 118.161 21.4271 118.853 21.902C119.552 22.3693 120.438 22.603 121.509 22.603Z" fill="white"/>
<path d="M113.125 7L106.52 25H103.73L97.125 7H100.102L105.032 21.3437H105.218L110.148 7H113.125Z" fill="white"/>
<path d="M86.125 25C84.5311 25 83.1327 24.6259 81.9296 23.8778C80.7342 23.1297 79.7993 22.0831 79.125 20.738C78.4583 19.3929 78.125 17.8212 78.125 16.0227C78.125 14.2091 78.4583 12.6259 79.125 11.2733C79.7993 9.92065 80.7342 8.87028 81.9296 8.12217C83.1327 7.37406 84.5311 7 86.125 7C87.7189 7 89.1135 7.37406 90.3089 8.12217C91.512 8.87028 92.4468 9.92065 93.1135 11.2733C93.7878 12.6259 94.125 14.2091 94.125 16.0227C94.125 17.8212 93.7878 19.3929 93.1135 20.738C92.4468 22.0831 91.512 23.1297 90.3089 23.8778C89.1135 24.6259 87.7189 25 86.125 25ZM86.125 22.597C87.3357 22.597 88.3319 22.2909 89.1135 21.6788C89.8951 21.0668 90.4737 20.262 90.8491 19.2645C91.2246 18.267 91.4124 17.1864 91.4124 16.0227C91.4124 14.8589 91.2246 13.7746 90.8491 12.7695C90.4737 11.7645 89.8951 10.9521 89.1135 10.3325C88.3319 9.71285 87.3357 9.40302 86.125 9.40302C84.9143 9.40302 83.9181 9.71285 83.1365 10.3325C82.3549 10.9521 81.7763 11.7645 81.4009 12.7695C81.0254 13.7746 80.8376 14.8589 80.8376 16.0227C80.8376 17.1864 81.0254 18.267 81.4009 19.2645C81.7763 20.262 82.3549 21.0668 83.1365 21.6788C83.9181 22.2909 84.9143 22.597 86.125 22.597Z" fill="white"/>
<path d="M74.125 1V25H71.3171L58.2605 6.15625H58.0265V25H55.125V1H57.9329L71.0363 19.8906H71.2703V1H74.125Z" fill="white"/>
<path d="M55.125 40.8V31.8H62.125V32.9572H56.4213V35.7215H61.8657V36.8786H56.4213V39.6429H62.125V40.8H55.125Z" fill="white"/>
<path d="M66.8359 40.8V31.8H68.2422L74.4297 38.9229V31.8H75.8359V40.8H74.4297L68.2422 33.6772V40.8H66.8359Z" fill="white"/>
<path d="M85.5508 41.3C82.794 41.3 80.5508 39.0568 80.5508 36.3C80.5508 33.5433 82.794 31.3 85.5508 31.3C87.1589 31.3 88.5913 32.0568 89.5102 33.246L88.6048 33.9892C87.8481 33.1379 86.7535 32.5433 85.5238 32.5433C83.4562 32.5433 81.9021 34.2055 81.9021 36.3C81.9021 38.3946 83.4562 40.0568 85.5508 40.0568C87.4832 40.0568 89.0778 38.746 89.2805 36.9082H85.5508V35.6919H90.5102C90.5373 35.8946 90.5508 36.0973 90.5508 36.3C90.5508 39.0568 88.3075 41.3 85.5508 41.3Z" fill="white"/>
<path d="M95.2617 40.8V31.8H96.2617V40.8H95.2617Z" fill="white"/>
<path d="M100.973 40.8V31.8H102.379L108.566 38.9229V31.8H109.973V40.8H108.566L102.379 33.6772V40.8H100.973Z" fill="white"/>
<path d="M114.684 40.8V31.8H121.684V32.9572H115.98V35.7215H121.424V36.8786H115.98V39.6429H121.684V40.8H114.684Z" fill="white"/>
<path d="M126.398 40.8V31.8H133.398V32.9572H127.695V35.7215H133.139V36.8786H127.695V39.6429H133.398V40.8H126.398Z" fill="white"/>
<path d="M144.522 40.8L141.474 37.4572H139.379V40.8H138.109V31.8H143.062C144.598 31.8 145.805 33.0729 145.805 34.6286C145.805 36.1843 144.598 37.4572 143.062 37.4572L146.109 40.8H144.522ZM142.935 36.3C143.849 36.3 144.586 35.5543 144.586 34.6286C144.586 33.7029 143.849 32.9572 142.935 32.9572H139.379V36.3H142.935Z" fill="white"/>
<path d="M150.82 40.8V31.8H151.82V40.8H150.82Z" fill="white"/>
<path d="M156.531 40.8V31.8H157.937L164.125 38.9229V31.8H165.531V40.8H164.125L157.937 33.6772V40.8H156.531Z" fill="white"/>
<path d="M175.246 41.3C172.489 41.3 170.246 39.0568 170.246 36.3C170.246 33.5433 172.489 31.3 175.246 31.3C176.854 31.3 178.287 32.0568 179.206 33.246L178.3 33.9892C177.543 33.1379 176.449 32.5433 175.219 32.5433C173.151 32.5433 171.597 34.2055 171.597 36.3C171.597 38.3946 173.152 40.0568 175.246 40.0568C177.179 40.0568 178.773 38.746 178.976 36.9082H175.246V35.6919H180.206C180.233 35.8946 180.246 36.0973 180.246 36.3C180.246 39.0568 178.003 41.3 175.246 41.3Z" fill="white"/>
</svg>
