<svg width="200" height="40" viewBox="0 0 200 40" fill="none" xmlns="http://www.w3.org/2000/svg">
<g clip-path="url(#clip0_271_6698)">
<path d="M17.9388 -0.026123C13.5388 -0.026123 9.96484 3.53909 9.96484 7.93909C9.96484 12.3391 13.5301 15.9043 17.9301 15.9043C22.3301 15.9043 25.8953 12.3391 25.8953 7.93909C25.8953 3.53909 22.3388 -0.026123 17.9388 -0.026123ZM17.9388 10.2347C16.6692 10.2347 15.6431 9.20866 15.6431 7.93909C15.6431 6.66953 16.6692 5.64344 17.9388 5.64344C19.2083 5.64344 20.2344 6.66953 20.2344 7.93909C20.2344 9.20866 19.2083 10.2347 17.9388 10.2347Z" fill="url(#paint0_radial_271_6698)"/>
<path d="M32.0852 34.965C27.92 32.2084 24.9287 27.8345 24.0069 22.7302H23.9983C23.6591 20.678 21.8678 19.1128 19.72 19.1128C17.32 19.1128 15.3809 21.0606 15.3809 23.4519C15.3809 23.7911 15.4156 24.1215 15.4852 24.4432C16.9896 31.9737 23.0417 37.8606 30.6591 39.1215C30.8765 39.165 31.1113 39.1737 31.3461 39.1389C32.5026 38.9824 33.3461 37.9911 33.2852 36.8171C33.2417 36.0084 32.7722 35.3215 32.0939 34.965H32.0852Z" fill="url(#paint1_linear_271_6698)"/>
<path d="M8.60838 7.93902C8.60838 6.61729 8.88664 5.35642 9.3823 4.21729C9.3823 4.21729 -5.60901 16.1129 2.30403 37.6955C2.32143 37.7477 2.3736 37.8521 2.3736 37.8521C2.72143 38.6173 3.49534 39.1477 4.39099 39.1477C5.61708 39.1477 6.60838 38.1564 6.60838 36.9303C6.60838 20.7999 14.7475 16.9303 15.0171 16.7999C11.2866 15.5738 8.59969 12.0695 8.59969 7.93033L8.60838 7.93902Z" fill="url(#paint2_linear_271_6698)"/>
<path fill-rule="evenodd" clip-rule="evenodd" d="M73.8423 28.4001H63.0684V10.4436H73.8423C74.3988 10.4436 74.8249 10.6175 75.1205 10.9566C75.4162 11.3045 75.564 11.7045 75.564 12.1653C75.564 12.6262 75.4162 13.0523 75.1205 13.3827C74.8249 13.7219 74.3988 13.8871 73.851 13.8871H66.5466V16.5914H70.9814C71.5292 16.5914 71.9553 16.7653 72.251 17.1045C72.5466 17.4523 72.6944 17.8523 72.6944 18.3132C72.6944 18.774 72.5466 19.2001 72.251 19.5306C71.9553 19.8697 71.5292 20.0349 70.9814 20.0349H66.5466V24.948H73.851C74.4075 24.948 74.8249 25.1219 75.1205 25.461C75.4162 25.8088 75.564 26.2088 75.564 26.6697C75.564 27.1306 75.4162 27.5566 75.1205 27.8871C74.8249 28.2262 74.3988 28.3914 73.8423 28.3914V28.4001Z" fill="#151515"/>
<path fill-rule="evenodd" clip-rule="evenodd" d="M95.2005 12.7393L90.2613 26.4697C89.8092 27.7566 88.7918 28.4001 87.2266 28.4001C85.6613 28.4001 84.644 27.7566 84.1918 26.4697L79.3396 12.7393C79.2613 12.5132 79.2266 12.2958 79.2266 12.0871C79.2266 11.6175 79.4092 11.2262 79.7657 10.9132C80.1222 10.6001 80.5309 10.4436 80.9831 10.4436C81.757 10.4436 82.2787 10.8175 82.5396 11.574L87.2613 24.7566L92.0005 11.574C92.2613 10.8175 92.7744 10.4436 93.5309 10.4436C94.0005 10.4436 94.4179 10.6001 94.7744 10.9132C95.1309 11.2262 95.3135 11.6175 95.3135 12.0871C95.3135 12.2958 95.2787 12.5132 95.2005 12.7393Z" fill="#151515"/>
<path fill-rule="evenodd" clip-rule="evenodd" d="M58.347 19.9653C59.0687 18.9306 59.434 17.7132 59.434 16.2958C59.434 14.6697 58.8948 13.2871 57.8253 12.148C56.7557 11.0175 55.3818 10.4436 53.7209 10.4436H44.4688V26.6697C44.4688 27.2262 44.634 27.6523 44.9731 27.9566C45.3122 28.2523 45.7209 28.4001 46.2079 28.4001C46.6948 28.4001 47.0774 28.2523 47.4253 27.9566C47.7731 27.661 47.947 27.2262 47.947 26.6697V19.4958L55.9035 27.8523C56.2514 28.2175 56.6514 28.4001 57.1122 28.4001C57.5731 28.4001 58.0079 28.2262 58.3644 27.8697C58.7209 27.5132 58.8948 27.1045 58.8948 26.6436C58.8948 26.1827 58.7296 25.8088 58.3905 25.461L55.2079 22.1219C56.547 21.774 57.5905 21.061 58.3557 19.974L58.347 19.9653ZM55.1905 18.548C54.7383 18.8958 53.9731 19.061 52.9122 19.061H47.947V13.8871H53.2774C53.9818 13.8871 54.6079 14.1132 55.147 14.574C55.6861 15.0349 55.9644 15.6088 55.9644 16.2958C55.9644 17.3653 55.7035 18.1132 55.1905 18.5393V18.548Z" fill="#151515"/>
<path fill-rule="evenodd" clip-rule="evenodd" d="M106.008 10.4521C103.278 10.4521 101.147 11.2695 99.6168 12.8956C98.0864 14.5217 97.3125 16.713 97.3125 19.4695C97.3125 22.2261 98.0864 24.3217 99.6255 25.9478C101.208 27.6261 103.33 28.4695 106.008 28.4695C108.686 28.4695 110.852 27.6521 112.417 26.0087C113.921 24.3913 114.678 22.2087 114.678 19.4782C114.678 16.7478 113.904 14.5565 112.365 12.9217C110.826 11.2782 108.704 10.4608 106.008 10.4608V10.4521ZM106.008 25.0782C104.286 25.0782 102.973 24.5826 102.078 23.5913C101.182 22.6 100.73 21.2261 100.73 19.4782C100.73 15.7217 102.486 13.8435 106.008 13.8435C109.53 13.8435 111.26 15.7217 111.26 19.4782C111.26 23.2348 109.513 25.0869 106.008 25.0869V25.0782Z" fill="#151515"/>
<path fill-rule="evenodd" clip-rule="evenodd" d="M127.547 10.4436H118.26V26.7306C118.26 27.2958 118.434 27.7219 118.782 28.0175C119.129 28.3132 119.538 28.461 119.999 28.461C120.46 28.461 120.877 28.3132 121.216 28.0175C121.564 27.7132 121.738 27.2871 121.738 26.7219V22.461H127.547C129.199 22.461 130.564 21.8523 131.66 20.6436C132.747 19.4349 133.303 17.9914 133.303 16.3219C133.303 14.6523 132.755 13.2958 131.677 12.1566C130.59 11.0088 129.208 10.4436 127.538 10.4436H127.547ZM129.19 18.2001C128.773 18.7393 128.216 19.0088 127.529 19.0088H121.755V13.9045H127.538C128.208 13.9045 128.755 14.1219 129.19 14.5653C129.616 15.0088 129.834 15.5914 129.834 16.3219C129.834 17.0523 129.625 17.661 129.199 18.2001H129.19Z" fill="#151515"/>
<path fill-rule="evenodd" clip-rule="evenodd" d="M151.862 12.9045C150.314 11.261 148.201 10.4436 145.505 10.4436C142.809 10.4436 140.644 11.261 139.105 12.8958C137.566 14.5219 136.801 16.7219 136.801 19.4697C136.801 22.2175 137.575 24.3306 139.114 25.948C140.696 27.6262 142.827 28.4697 145.496 28.4697C148.166 28.4697 150.349 27.6523 151.905 26.0088C153.409 24.3914 154.166 22.2088 154.166 19.4784C154.166 16.748 153.392 14.5566 151.853 12.9132L151.862 12.9045ZM145.505 25.0697C143.783 25.0697 142.47 24.574 141.566 23.5827C140.67 22.5914 140.218 21.2175 140.218 19.461C140.218 15.7045 141.975 13.8262 145.496 13.8262C149.018 13.8262 150.749 15.7045 150.749 19.461C150.749 23.2175 149.001 25.0697 145.496 25.0697H145.505Z" fill="#151515"/>
<path fill-rule="evenodd" clip-rule="evenodd" d="M161.21 26.7306C161.21 27.2958 161.044 27.7219 160.697 28.0175C160.357 28.3132 159.949 28.461 159.462 28.461C158.975 28.461 158.584 28.3132 158.244 28.0175C157.897 27.7219 157.723 27.2958 157.723 26.7306V12.174C157.723 11.6349 157.897 11.2088 158.244 10.9045C158.592 10.6001 159.001 10.4436 159.462 10.4436C159.923 10.4436 160.357 10.6001 160.697 10.9045C161.036 11.2088 161.21 11.6349 161.21 12.174V26.7306Z" fill="#151515"/>
<path fill-rule="evenodd" clip-rule="evenodd" d="M181.062 28.4175L168.523 17.7566V26.6958C168.523 27.2523 168.358 27.6784 168.01 27.974C167.671 28.2697 167.262 28.4175 166.775 28.4175C166.288 28.4175 165.897 28.2697 165.549 27.9653C165.201 27.6697 165.027 27.2436 165.027 26.6871V10.4436L177.566 20.0088V12.174C177.566 11.6349 177.732 11.2088 178.08 10.9045C178.419 10.6001 178.827 10.4436 179.314 10.4436C179.801 10.4436 180.193 10.6001 180.54 10.9045C180.888 11.2088 181.062 11.6349 181.062 12.174V28.4175Z" fill="#151515"/>
<path fill-rule="evenodd" clip-rule="evenodd" d="M198.268 13.9045H194.26V26.7306C194.26 27.2871 194.086 27.7219 193.738 28.0175C193.39 28.3132 192.981 28.461 192.52 28.461C192.06 28.461 191.625 28.3132 191.286 28.0175C190.946 27.7219 190.773 27.2871 190.773 26.7306V13.9045H186.233C185.703 13.9045 185.277 13.7393 184.973 13.4001C184.668 13.061 184.512 12.6523 184.512 12.174C184.512 11.6958 184.668 11.3045 184.973 10.9653C185.277 10.6175 185.703 10.4436 186.242 10.4436H198.268C198.825 10.4436 199.251 10.6175 199.555 10.9653C199.851 11.3132 199.999 11.7132 199.999 12.174C199.999 12.6349 199.851 13.061 199.555 13.4001C199.26 13.7393 198.825 13.9045 198.268 13.9045Z" fill="#151515"/>
</g>
<defs>
<radialGradient id="paint0_radial_271_6698" cx="0" cy="0" r="1" gradientUnits="userSpaceOnUse" gradientTransform="translate(17.9388 7.9391) scale(7.96522)">
<stop stop-color="white"/>
<stop offset="0.15" stop-color="#FEF8F8"/>
<stop offset="1" stop-color="#151515"/>
</radialGradient>
<linearGradient id="paint1_linear_271_6698" x1="24.5113" y1="2.26062" x2="24.2678" y2="39.3476" gradientUnits="userSpaceOnUse">
<stop stop-color="white"/>
<stop offset="1" stop-color="#151515"/>
</linearGradient>
<linearGradient id="paint2_linear_271_6698" x1="7.66925" y1="-3.60011" x2="7.43447" y2="33.4869" gradientUnits="userSpaceOnUse">
<stop stop-color="white"/>
<stop offset="1" stop-color="#151515"/>
</linearGradient>
<clipPath id="clip0_271_6698">
<rect width="200" height="39.1304" fill="white"/>
</clipPath>
</defs>
</svg>